# xmcd
#
# Track frame offsets: 
#        150
#        15630
#        41949
#        72562
#        90212
#        116513
#        138785
#        161399
#        179590
#        199258
#        239780
#        261593
#        283822
#
# Disc length: 4072 seconds
#
# Revision: 0
# Processed by: cddbd v1.5.2PL0 Copyright (c) Steve Scherf et al.
# Submitted via: ExactAudioCopy v0.99pb5
#
DISCID=c40fe60d
DTITLE=Big Brother And The Holding Company - Hold Me
DYEAR=2006
DGENRE=Blues
TTITLE0=Down On Me
TTITLE1=Combination Of The Two
TTITLE2=Call On Me
TTITLE3=Save Your Love
TTITLE4=Blind Man
TTITLE5=Summertime
TTITLE6=Turtle Blues
TTITLE7=It's Cool
TTITLE8=Hold Me
TTITLE9=Woman Is Losers
TTITLE10=Piece Of My Heart
TTITLE11=Ball And Chain
TTITLE12=Unknown
EXTD=
EXTT0=
EXTT1=
EXTT2=
EXTT3=
EXTT4=
EXTT5=
EXTT6=
EXTT7=
EXTT8=
EXTT9=
EXTT10=
EXTT11=
EXTT12=
PLAYORDER=
